<?xml version="1.0" encoding="UTF-8"?>
<svg id="Layer_2" xmlns="http://www.w3.org/2000/svg" viewBox="0 0 52.28 59">
  <defs>
    <style>
      .cls-1 {
        fill: #444036;
      }
    </style>
  </defs>
  <g id="Layer_1-2" data-name="Layer_1">
    <g id="Logos">
      <path class="cls-1" d="M52.2,5.71c.39-2.07-.77-4.1-2.54-5.17-1.79-1.13-3.85-.28-5.18.73-.69.44-1.13.77-1.88.8-1.47.2-2.99-.62-4.53-.53-1.21.02-2.45.19-3.56.67-1.35.62-2.65,1.13-4.09.76-.98-.35-1.84-.91-2.94-1.15-1.25-.26-2.37-.34-3.64-.14-1.13.2-1.82.6-2.85.58-1.47,0-2.46-.31-3.97-.67-1.84-.32-3.76.03-5.41.81-1.24.62-2.61,1.06-3.87.31-.93-.56-1.72-1.48-2.91-1.73C2.21.39.09,3.7,1.09,5.98c.55,1.39,1.5,2.64,1.3,4-.06,1.58-.79,2.69-1.2,4.25-.38,1.82-.38,3.69.2,5.46.78,1.97,1.2,3.41,1,5.4-.14.97-.54,2.16-.56,3.21-.05,1.14-.05,2.22.17,3.37.08.49.23.95.37,1.41-.47,1.07-.8,2.21-.96,3.38-.17,1.36-.02,2.64.37,3.78-.02.07-.04.13-.06.21-.54,2.22-.22,4.6.66,6.66.34,1.23.39,2.67-.45,3.74-1.66,1.87-2.74,3.74-1.16,6.16,1.13,1.85,3.45,2.56,5.33,1.5,1.14-.56,1.69-1.2,2.76-1.45,1.26-.21,2.09.07,3.42.34,1.26.2,2.39.08,3.61-.18,1.08-.2,2.02-.86,3-1.13.88-.24,1.95-.33,2.82.02.92.38,1.99.92,3.07.89,1.15,0,2.24-.14,3.36-.41,1.04-.3,1.85-.6,2.9-.57,1.59-.13,2.82.49,4.34.95,1.19.25,2.28.24,3.45.05,1.57-.34,2.79-1.13,4.41-1.04,1.56-.13,3.04.44,4.61.43.27,0,.5-.19.53-.46.03-.25-.13-.48-.36-.55-.03-.01-.06-.03-.1-.03-.5-.06-.99-.16-1.46-.28-1.53-.49-3.25-.71-4.89-.54-1.56.2-2.86,1.02-4.44.86-1.29.07-2.43-.53-3.67-.8,4.24-1.82,3.67-7.49,2.63-11-.94-3.75-2.04-7.45-3.33-11.1,3.3.12,6.57-.62,9.55-2,1.84-.79,4.14-2.39,5.36-4.32.12.4.25.79.34,1.19.06.25.11.51.14.77.07.85.02,1.78-.14,2.62v22.1c.41.49,1.32.18,1.25-.55-.09-1.44-.57-2.95-.42-4.35.16-.93.72-1.6,1.1-2.59.91-2.17.59-4.82-.16-6.97-.36-1.28-.41-2.68-.28-4,.12-.97.54-2.07.59-3.13.07-1.17.01-2.25-.19-3.4-.17-1.06-.66-2.06-.84-3.06-.2-1.38-.1-2.88.45-4.17.75-1.48,1.28-3.33,1.35-5.04.18-1.55-.43-3.24-.4-4.7.02-.36,0-.77.08-1.13.18-1.21,1.34-2.36,1.65-4.08ZM47.32,4.96s-.01.04-.03-.03c0-.02,0-.03-.01-.05.02.03.04.06.04.08ZM3.65,28.49c.02-.11.04-.22.06-.33V6.1c-.33-.55-.65-1.05-.32-1.55.13-.2.46-.55.64-.68.1-.07.17-.09.17-.08,0,0-.02,0,.06,0,.6.13,1.18.38,1.78.59h6.07c.06-.02.13-.03.2-.05.87-.2,1.78-.15,2.64.05h10.13c.63-.14,1.28-.18,2-.15.29.02.58.08.88.15.71.17,1.43.41,2.18.4.42.01.83.04,1.23.06-4.58,3.73-5.94,13.85-5.59,18.75l-.32.29c-.81-.16-1.06-1.07-1.3-1.99-.74-3.49-4.78-5.76-8.18-4.49-1.31.49-2.43.95-3.14,2.41-.56,1.57-.04,2.7.49,4.02.67,1.48,1.79,2.73,3.13,3.65-.99,1.04-2.08,2-3.23,2.82-.32.24-.72.5-1.12.7.15-1.05.06-2.18-.86-3-1.22-1.13-2.91-.83-4.12-.2-1.38.76-2.52,1.78-3.42,2.98-.03.03-.06.06-.08.1-.09-.78-.09-1.62.02-2.41ZM11.04,31.36c-.08,0-.12-.01,0,0,0,0,0,0,0,0ZM7.85,30.29s0,.03,0,.05c0-.03,0-.04,0-.05ZM4.12,54.7s.06-.01.11-.01c-.09.03-.13.03-.11.01ZM29.27,54.87c-1.02.41-1.79.82-2.86.77-.97-.04-1.85-.28-2.75-.61-.96-.4-2.29-.43-3.33-.44-1.07-.09-2.35.07-3.36.39-.95.26-1.78.23-2.73.08-1.07-.17-1.53-.52-2.59-1.01-1.24-.51-2.62-.77-3.95-.6-1.43.19-2.6.9-3.26,1.17-.09-.09-.21-.26-.27-.28-.03-.01-.06.03-.09.03-.04,0-.08-.06-.08-.2.15-1.23.87-2.49.92-4.06.05-.62,0-1.2-.06-1.81-.07-1.58-.75-3.09-.88-4.62,0-.04,0-.08,0-.13,2.03,1.86,5.01,2.71,8.05,1.97,3.8-.9,7.23-3.2,9.7-6.25.51,2.66.96,5.02.96,5.02.47,2.51,1.14,5.81,3.06,8.07.97,1.14,2.31,2.02,3.76,2.43-.07.02-.14.04-.21.07ZM41.61,29.09c-2.97,1.57-6.45,2.36-9.77,1.95-.5-.07-.93.45-.75.93,1.39,3.9,2.4,7.94,3.11,12.03.4,2.49,1.02,5.87-1.11,7.62-1.2.9-2.86.4-3.94-.53-2.06-1.93-2.15-4.52-2.64-7.45l-1.86-12.4c-.17-1.14-1.2-1.97-2.37-1.88-1.22.1-2.13,1.17-2.03,2.38.12,3.15-3.88,6.66-6.7,8.07-5.67,3.05-9.66-.99-6.05-6.4.07-.1.15-.19.22-.29.31,1.08,1.18,2.09,2.38,2.28,4.07.71,8.27-4.46,10.42-7.37.75-.88.32-2.34-.82-2.63-2.01-.55-3.69-2.01-4.33-3.99-.15-.4-.15-.55-.14-.67,0-.12.17-.37.47-.61.97-.75,2.24-1.19,3.48-1.04,1.76.19,3.29,1.47,3.97,3.15.2.47.41.98.78,1.45.36.49,1.02.84,1.64.79.07,0,.14-.04.18-.1l.45-.62c.58-4.36,3.53-16.12,8.25-17.13,3.48-.71.29,8.5-.52,10.05-.7,1.56-1.54,3.06-2.48,4.5-1.22.67-2.32,1.57-3.17,2.79-.82,1.17-1.96,3.69-.55,5.1.82.76,2.1.71,2.86-.1,1.47-1.59,2.82-3.31,4.01-5.14,2.35-1.04,5.37-1.41,7.34-1.75,7.71-.95,3.62,5.19-.33,6.99ZM47.61,18.52c-.07.63-.24,1.37-.36,2.11-2.27-1.98-5.5-1.52-8.24-1.34-.66.05-1.33.12-2.01.22,1.1-2.39,1.91-4.91,2.31-7.52.23-1.76.47-3.54-.09-5.32-.25-.94-.79-1.72-1.49-2.28h.18c1.02.21,1.48.63,2.61,1.04,1.34.44,2.73.65,4.1.35.89-.15,1.84-.65,2.6-.96-.26.54-.83,1.51-1.14,2.33-.76,1.92-.52,4.24.22,6.15.87,1.73,1.43,3.3,1.29,5.22ZM47.59,4.7s-.02,0-.03,0c.05-.02.1-.04.14-.05.08-.01.05.04-.11.05ZM25.62,27.48c.09.19.05.44-.09.64-.14.19-.36.33-.58.35-.02,0-.05,0-.07,0-.1,0-.2-.02-.28-.04-.05-.01-.11-.02-.16-.03-.09,0-.17,0-.26,0-.09,0-.17,0-.25,0-.3-.02-.43-.15-.48-.27-.1-.21-.02-.52.22-.84.28-.37.77-.74,1.2-.67.08.01.15.04.2.08.09.07.12.16.14.24,0,.02.02.05.03.07h0c.03.06.09.12.16.18.08.07.18.16.23.28Z"/>
    </g>
  </g>
</svg>