<?xml version="1.0" encoding="UTF-8"?>
<svg id="Layer_2" xmlns="http://www.w3.org/2000/svg" viewBox="0 0 111.84 126.52">
  <defs>
    <style>
      .cls-1 {
        fill: #f8df8d;
      }
    </style>
  </defs>
  <g id="Layer_1-2" data-name="Layer_1">
    <g id="Logos">
      <g>
        <path class="cls-1" d="M111.7,53.17c-.05-.48-.1-1.14-.16-1.63-.45-4.33-1.94-7.83-4.41-11.13-2.54-3.48-5.81-6.4-9.66-7.76-4.35-1.55-9.3-1.58-13.68-.24-1.74.56-3.44,1.29-5.07,2.17.96-5.35,1.51-10.79,1.65-16.24.17-4.13,0-8.69-2.19-12.21-1.82-2.97-4.89-4.48-7.89-5.47-2.09-.7-4.35-.99-6.47-.17-5.68,2.12-9.33,7.74-12.28,13.23-3.86,7.21-6.01,15.58-6.13,24.01-.03,2.82.18,5.65.68,8.41,1.07,5.31,7.89,4.45,7.83-1.07-.09-2.29-.04-4.57.17-6.83.51-5.61,2.03-11.07,4.23-16.13,1.29-2.99,2.86-5.96,4.74-8.51,1.31-1.78,2.65-3.37,4.29-4.66,1.53-1.37,2.68-2.74,4.81-2.61,1.21.05,2.3.77,3.1,1.76,2.3,2.9,1.82,8.19,1.48,11.87-.63,6.29-1.85,12.5-3.64,18.49-1.52,1.29-2.93,2.73-4.23,4.3-1.12,1.36-2.16,2.8-3.15,4.28-1.29,1.92-2.48,4.04-2.86,6.55-.17,1.2-.2,2.34.14,3.54.45,1.66,1.78,3.01,3.36,3.21,1.14.18,2.37-.3,3.25-1.03.76-.62,1.28-1.32,1.79-2.16,1.58-2.55,2.77-5.4,3.73-8.27.45-1.37.88-2.76,1.27-4.16,2.58-2.63,5.44-4.86,8.89-5.71,3.71-.93,6.74.73,9.49,3.43,1.29,1.26,2.54,2.59,3.54,4.15.18.28.4.64.58.93,1.37,2.32,1.59,3.42,1.64,6.06.07,2.31-.08,4.73-.77,6.84-1,3.07-3.14,5.48-5.82,6.79-2.71,1.36-6.23,2.09-9.3,2.5-2.68.37-5.42.73-8.11.9-3.6.22-6.86.19-10.11,2.09-.87.51-1.78,1.18-2.07,2.24-.22.8-.02,1.69.36,2.41,1.2,2.28,3.41,4.16,4.92,6.19,1.64,2.2,3.16,4.53,4.41,7.05.42.88.81,1.76,1.15,2.68.93,2.5,1.42,5.41,1.55,7.99.09,1.6-.04,3.19-.38,4.68-.15.69-.31,1.35-.54,1.99-.44,1.22-1.14,2.49-1.98,3.32-.39.41-.82.58-1.38.63-2,.12-4-1.13-5.68-2.36-3.64-2.73-7.54-6.11-9.74-10.59-1.98-4.27-3.94-8.79-4.04-13.71-.04-1.91.72-3.85.59-5.66-.08-1.24-.51-2.6-.96-3.72-.95-2.37-2.75-4.11-5.02-2.55-1.08.74-2.24,1.23-3.42,1.67-1.16.43-2.34.77-3.56.92-.68.09-1.54.16-2.21.28-.05,0-.11.02-.16.03-.59-6.43-1.37-12.84-3.04-19.07-.31-1.11-.65-2.23-1.05-3.31-1.42-3.93-3.86-7.49-7.45-9.18-5.22-2.45-9.8-.26-13.34,4.32-1.96,2.49-3.59,5.3-4.83,8.32-1.18,2.84-1.9,5.93-1.6,9.15.55,5.76,4.9,9.26,9.89,8.08,2.78-.61,5.17-2.81,7.03-5.02.63-.73.79-1.86.35-2.8-.56-1.17-1.85-1.61-2.88-.98-.83.5-1.62.99-2.36,1.37-.69.35-1.37.63-2.07.77-.72.14-1.6.1-2.21-.31-.54-.38-.53-1.01-.51-1.69.07-1.31.55-2.72,1.13-3.94,1.32-2.72,3-5.28,5.01-7.39,1.11-1.09,1.9-1.63,3.29-1.11.62.22,1.32.68,1.84,1.2,1.47,1.47,2.36,3.17,3.43,5.43,2.6,5.48,4.01,11.43,4.45,17.53-2.82.86-5.62,1.81-8.39,2.85-8.08,3.09-16.89,6.71-21.83,15.28-5.11,8.59-3.99,21.74,3.89,27.83,8.13,6.25,19.16,2.08,25.39-5.42,2.6-3.07,4.55-6.78,5.74-10.79,1.85-6.22,1.55-12.84,1.07-19.31.25-.1.5-.2.69-.28.64-.24,1.26-.55,1.88-.88.81-.44,1.65-.9,2.52-1.18.27-.08.53-.16.8-.22,1.32,5.09,2.37,10.26,4.37,15.08.7,1.65,1.54,3.23,2.3,4.84,1.6,3.29,3.24,6.59,5.43,9.46,2.36,3.12,5.43,5.52,8.84,7.01,1.94.86,3.74,1.47,5.94,1.69,5.1.55,9.61-2.14,12.42-6.83,1.55-2.61,2.54-5.69,2.89-8.78.26-2.61.08-5.14-.4-7.66-1.04-5.36-3.68-9.97-7.09-13.71-1.88-2.06-3.96-3.81-6.14-5.36.33.04.66.07.99.1,4.33.37,8.91.96,13.25.84,3.02-.12,6.02-.67,8.89-1.8,6.56-2.53,11.88-8.18,14.01-15.7,1.06-3.73,1.25-7.61.92-11.41ZM66.25,53.82s.05-.03.08-.05c-.05.04-.09.08-.11.08,0,0,0,0,.03-.03ZM30.98,97.95c-.65,1.6-1.41,3.03-2.4,4.35-2.2,2.92-5.15,5.07-8.33,6.32-.56.23-1.18.42-1.76.58-.87.23-1.77.37-2.51.25-.23-.04-.31-.1-.33-.13,0-.01.05.02.03,0-.2-.28-.34-.62-.46-1.15-.24-1.14-.19-2.47.18-3.58,1.65-4.14,5.66-6.88,9.22-9.16,2.65-1.65,5.43-3.22,8.2-4.6-.37,2.46-.95,4.88-1.84,7.12Z"/>
        <path class="cls-1" d="M49.34,59.45c.58-2.04,2.65-2.91,4.76-1.76,2.17,1.17,3.3,3.75,2.5,5.86-.74,1.96-3.24,3.29-5.5,2.58-1.51-.46-2.8-1.86-2.69-3.34.06-.87.69-1.59,1.48-1.97.14-.07.29.11.17.21-.53.46-.88,1.08-.73,1.77.21.9,1.17,1.56,2.11,1.58.64.02,1.24-.29,1.57-.78.24-.37.25-.76.25-1.17,0-.44-.05-.87-.15-1.31-.18-.78-.48-1.89-1.43-2.12-.32-.07-.66-.01-.98.09-.37.11-.74.3-1.12.52-.11.07-.27-.04-.23-.16h0Z"/>
      </g>
    </g>
  </g>
</svg>