<?xml version="1.0" encoding="UTF-8"?>
<svg id="Layer_2" xmlns="http://www.w3.org/2000/svg" viewBox="0 0 114.84 129.61">
  <defs>
    <style>
      .cls-1 {
        fill: #f8df8d;
      }
    </style>
  </defs>
  <g id="Layer_1-2" data-name="Layer_1">
    <g id="Logos">
      <path id="outline" class="cls-1" d="M114.67,12.53c.85-4.55-1.69-9.01-5.57-11.35-3.92-2.48-8.46-.62-11.39,1.6-1.52.96-2.48,1.7-4.13,1.75-3.23.44-6.57-1.36-9.95-1.16-2.65.05-5.39.41-7.82,1.47-2.96,1.37-5.82,2.48-8.99,1.68-2.15-.77-4.04-2-6.47-2.53-2.74-.58-5.2-.75-8-.3-2.49.43-4.01,1.31-6.26,1.27-3.23,0-5.39-.67-8.72-1.47-4.04-.71-8.26.07-11.89,1.78-2.73,1.35-5.73,2.34-8.51.68-2.05-1.23-3.78-3.24-6.4-3.8C4.85.86.2,8.12,2.39,13.13c1.2,3.06,3.3,5.81,2.85,8.79-.13,3.48-1.73,5.91-2.63,9.34-.84,3.99-.83,8.11.44,12,1.72,4.33,2.63,7.48,2.2,11.87-.3,2.12-1.18,4.75-1.23,7.04-.12,2.51-.12,4.88.37,7.41.19,1.08.5,2.09.81,3.09-1.04,2.34-1.75,4.85-2.12,7.43-.36,2.99-.04,5.79.82,8.3-.04.15-.09.29-.13.45-1.19,4.89-.47,10.11,1.46,14.63.74,2.7.85,5.87-.98,8.21-3.65,4.1-6.03,8.21-2.56,13.53,2.48,4.05,7.57,5.63,11.71,3.29,2.51-1.23,3.72-2.64,6.07-3.18,2.76-.45,4.59.15,7.51.75,2.76.43,5.25.18,7.92-.39,2.38-.43,4.44-1.88,6.6-2.48,1.93-.54,4.29-.73,6.19.04,2.01.84,4.37,2.02,6.74,1.95,2.54-.02,4.93-.3,7.38-.91,2.29-.66,4.07-1.32,6.38-1.25,3.49-.28,6.19,1.07,9.53,2.08,2.61.55,5,.53,7.58.1,3.44-.75,6.12-2.49,9.68-2.28,3.42-.29,6.68.97,10.13.95.58,0,1.1-.42,1.17-1.01.07-.56-.28-1.05-.79-1.22-.07-.02-.13-.06-.21-.07-1.11-.14-2.18-.34-3.21-.61-3.36-1.08-7.14-1.57-10.75-1.19-3.43.44-6.28,2.23-9.75,1.89-2.84.16-5.34-1.15-8.07-1.75,9.31-4,8.06-16.45,5.78-24.16-2.07-8.23-4.47-16.38-7.31-24.38,7.25.27,14.43-1.36,20.97-4.38,4.04-1.73,9.09-5.25,11.78-9.49.27.88.55,1.74.76,2.61.13.55.25,1.11.3,1.69.16,1.86.05,3.91-.3,5.75v48.56c.91,1.08,2.9.39,2.75-1.21-.2-3.16-1.24-6.47-.92-9.56.35-2.05,1.57-3.53,2.42-5.68,2.01-4.77,1.29-10.6-.35-15.3-.79-2.8-.9-5.9-.62-8.78.27-2.13,1.18-4.55,1.29-6.87.15-2.57.02-4.95-.42-7.47-.36-2.32-1.45-4.53-1.83-6.71-.45-3.03-.23-6.33.98-9.16,1.65-3.26,2.8-7.32,2.98-11.07.4-3.4-.95-7.12-.88-10.33.05-.79,0-1.7.17-2.49.4-2.65,2.95-5.18,3.62-8.96ZM103.95,10.89c.03.11-.02.09-.06-.06-.01-.03-.02-.07-.03-.11.04.07.08.14.09.18ZM8.01,62.59c.03-.25.08-.49.13-.72V13.39c-.72-1.2-1.43-2.31-.7-3.41.29-.44,1.01-1.2,1.42-1.5.22-.16.36-.19.37-.17,0,.02-.05.02.13.01,1.33.28,2.58.82,3.91,1.3h13.32c.14-.04.29-.08.43-.12,1.91-.44,3.9-.32,5.8.12h22.26c1.39-.3,2.8-.39,4.39-.32.64.04,1.28.17,1.94.32,1.55.37,3.15.91,4.8.88.93.02,1.82.09,2.7.14-10.05,8.19-13.05,30.42-12.28,41.18l-.71.64c-1.77-.36-2.32-2.34-2.85-4.37-1.64-7.67-10.51-12.66-17.96-9.86-2.88,1.08-5.34,2.1-6.89,5.3-1.24,3.45-.09,5.93,1.08,8.84,1.48,3.25,3.94,5.99,6.86,8.02-2.18,2.29-4.56,4.38-7.11,6.19-.7.52-1.57,1.09-2.46,1.53.32-2.3.14-4.78-1.89-6.59-2.68-2.47-6.4-1.81-9.04-.43-3.04,1.66-5.54,3.91-7.52,6.54-.06.07-.12.14-.18.22-.2-1.72-.19-3.57.05-5.28ZM24.24,68.89c-.17,0-.26-.02,0,0,0,0,0,0,0,0ZM17.24,66.54s-.01.08-.01.11c0-.08,0-.1.01-.11ZM9.06,120.17s.13-.03.24-.03c-.19.06-.3.06-.24.03ZM64.29,120.53c-2.23.9-3.93,1.8-6.29,1.69-2.14-.09-4.06-.62-6.05-1.34-2.1-.89-5.03-.95-7.33-.97-2.36-.21-5.17.15-7.37.86-2.09.57-3.91.51-5.99.17-2.35-.38-3.36-1.14-5.7-2.21-2.73-1.12-5.75-1.69-8.68-1.31-3.14.41-5.72,1.99-7.16,2.57-.19-.2-.47-.56-.59-.61-.06-.02-.12.07-.21.07-.09,0-.18-.13-.18-.44.32-2.7,1.91-5.48,2.03-8.93.11-1.37-.01-2.64-.13-3.98-.15-3.47-1.65-6.79-1.94-10.14,0-.09-.01-.19-.02-.28,4.46,4.09,11,5.96,17.67,4.32,8.35-1.99,15.89-7.03,21.3-13.72,1.12,5.83,2.12,11.03,2.12,11.03,1.02,5.51,2.5,12.75,6.71,17.73,2.14,2.51,5.07,4.44,8.26,5.33-.15.05-.3.1-.45.15ZM91.41,63.9c-6.53,3.44-14.16,5.19-21.47,4.29-1.1-.16-2.04.99-1.64,2.04,3.06,8.58,5.28,17.45,6.83,26.42.88,5.48,2.24,12.9-2.43,16.74-2.63,1.97-6.28.87-8.65-1.17-4.53-4.24-4.72-9.94-5.8-16.37l-4.09-27.24c-.38-2.5-2.64-4.33-5.2-4.12-2.67.22-4.67,2.56-4.45,5.23.26,6.91-8.52,14.63-14.72,17.73-12.45,6.71-21.23-2.17-13.29-14.06.15-.22.32-.42.49-.63.69,2.37,2.59,4.59,5.22,5.01,8.94,1.56,18.17-9.79,22.88-16.2,1.64-1.94.7-5.14-1.8-5.78-4.41-1.2-8.1-4.42-9.52-8.76-.32-.87-.33-1.21-.3-1.47,0-.26.38-.82,1.04-1.34,2.14-1.64,4.91-2.62,7.64-2.29,3.87.42,7.23,3.22,8.71,6.92.44,1.03.9,2.16,1.71,3.19.79,1.08,2.24,1.85,3.59,1.73.15,0,.3-.08.39-.21l.99-1.36c1.28-9.57,7.76-35.41,18.13-37.62,7.64-1.56.63,18.66-1.15,22.07-1.54,3.42-3.38,6.72-5.44,9.89-2.68,1.47-5.09,3.44-6.97,6.13-1.8,2.56-4.3,8.12-1.22,11.21,1.8,1.67,4.61,1.57,6.28-.23,3.22-3.49,6.19-7.27,8.81-11.29,5.17-2.28,11.8-3.09,16.13-3.83,16.93-2.09,7.96,11.41-.72,15.36ZM104.58,40.69c-.14,1.38-.53,3.02-.79,4.63-4.98-4.35-12.09-3.33-18.1-2.95-1.44.11-2.92.27-4.41.48,2.42-5.25,4.19-10.78,5.08-16.52.5-3.86,1.04-7.78-.19-11.69-.55-2.06-1.74-3.77-3.26-5.01h.4c2.24.46,3.26,1.39,5.73,2.28,2.95.97,6,1.44,9.01.78,1.95-.32,4.05-1.44,5.72-2.1-.57,1.19-1.83,3.32-2.51,5.13-1.67,4.22-1.15,9.31.49,13.51,1.92,3.81,3.13,7.25,2.83,11.46ZM104.54,10.33s-.04,0-.07,0c.1-.03.22-.08.32-.1.18-.03.1.08-.25.11ZM56.28,60.36c.19.42.11.97-.19,1.41-.3.42-.79.72-1.28.76-.05,0-.1,0-.16,0-.23,0-.44-.05-.62-.09-.12-.03-.23-.05-.35-.06-.19-.02-.38,0-.57,0-.19.01-.37.02-.56.01-.66-.03-.94-.34-1.05-.58-.22-.47-.04-1.14.48-1.85.61-.81,1.7-1.62,2.63-1.48.18.03.33.09.44.18.19.15.26.36.31.53.02.05.03.11.06.16h0c.06.14.2.26.34.39.18.16.39.35.51.62Z"/>
    </g>
  </g>
</svg>