<?xml version="1.0" encoding="UTF-8"?>
<svg id="Layer_2" xmlns="http://www.w3.org/2000/svg" viewBox="0 0 125.14 120.48">
  <defs>
    <style>
      .cls-1 {
        fill: #f8df8d;
      }
    </style>
  </defs>
  <g id="Layer_1-2" data-name="Layer_1">
    <g id="Logos">
      <g>
        <path class="cls-1" d="M124.26,64.97c.11-.47.26-1.12.35-1.6.92-4.25.59-8.05-.73-11.95-1.33-4.1-3.53-7.89-6.77-10.38-3.65-2.82-8.34-4.4-12.93-4.49-1.83,0-3.67.15-5.49.48,2.57-4.78,4.79-9.78,6.62-14.92,1.44-3.87,2.7-8.26,1.72-12.29-.81-3.39-3.25-5.79-5.8-7.65-1.77-1.31-3.83-2.29-6.09-2.18-6.05.25-11.28,4.45-15.79,8.75-5.91,5.65-10.57,12.94-13.3,20.91-.9,2.67-1.58,5.43-1.98,8.21-.64,5.38,6.11,6.68,7.77,1.42.63-2.2,1.38-4.35,2.28-6.44,2.23-5.18,5.37-9.89,9.04-14.01,2.15-2.44,4.58-4.78,7.15-6.61,1.8-1.28,3.57-2.38,5.53-3.09,1.88-.83,3.4-1.77,5.38-.98,1.13.42,1.95,1.44,2.4,2.63,1.28,3.47-.82,8.35-2.29,11.74-2.56,5.78-5.65,11.3-9.22,16.44-1.84.76-3.64,1.68-5.35,2.77-1.49.94-2.92,1.99-4.32,3.08-1.82,1.43-3.61,3.07-4.76,5.33-.53,1.08-.92,2.16-.97,3.41-.09,1.71.76,3.41,2.19,4.09,1.03.53,2.35.45,3.41.03.92-.35,1.63-.85,2.38-1.49,2.3-1.93,4.31-4.27,6.12-6.7.86-1.17,1.69-2.35,2.5-3.56,3.27-1.69,6.69-2.92,10.22-2.66,3.82.27,6.17,2.79,7.95,6.21.83,1.6,1.61,3.25,2.08,5.04.09.33.18.73.26,1.06.57,2.63.44,3.74-.33,6.27-.65,2.22-1.55,4.47-2.86,6.26-1.91,2.6-4.69,4.23-7.65,4.64-3,.44-6.57.05-9.62-.52-2.66-.48-5.38-.99-7.99-1.67-3.5-.91-6.57-1.96-10.26-1.16-.99.21-2.06.57-2.66,1.49-.45.69-.54,1.6-.41,2.4.43,2.54,1.94,5.01,2.75,7.42.88,2.6,1.59,5.29,1.99,8.07.13.97.23,1.93.26,2.9.11,2.67-.33,5.58-1.02,8.07-.41,1.55-1.03,3.02-1.82,4.33-.35.61-.71,1.19-1.13,1.73-.8,1.02-1.86,2.01-2.91,2.54-.5.27-.96.3-1.51.16-1.93-.51-3.45-2.32-4.66-4.01-2.61-3.72-5.26-8.16-5.96-13.09-.55-4.68-1-9.58.42-14.28.56-1.83,1.88-3.43,2.33-5.2.31-1.2.32-2.63.24-3.83-.17-2.55-1.33-4.76-3.98-3.98-1.26.37-2.51.48-3.77.52-1.24.04-2.47,0-3.67-.24-.67-.12-1.51-.33-2.18-.42-.05,0-.11-.02-.16-.02,1.44-6.29,2.69-12.63,3.05-19.06.05-1.15.08-2.32.04-3.47-.13-4.18-1.34-8.32-4.22-11.05-4.2-3.95-9.23-3.3-14.02-.05-2.64,1.76-5.06,3.92-7.18,6.4-2,2.33-3.65,5.04-4.36,8.2-1.27,5.64,1.78,10.33,6.88,10.75,2.83.28,5.79-1.06,8.25-2.58.82-.5,1.33-1.52,1.2-2.56-.16-1.28-1.25-2.1-2.44-1.83-.95.22-1.84.43-2.67.56-.76.11-1.5.18-2.21.08-.72-.09-1.55-.4-2-.99-.4-.53-.18-1.13.04-1.77.48-1.23,1.37-2.42,2.3-3.39,2.1-2.18,4.5-4.09,7.06-5.46,1.39-.69,2.32-.95,3.48-.03.52.41,1.04,1.06,1.38,1.71.94,1.85,1.25,3.75,1.57,6.23.76,6.02.25,12.11-1.23,18.04-2.95-.06-5.9-.03-8.86.1-8.64.42-18.14,1.12-25.5,7.72-7.53,6.58-10.56,19.42-4.96,27.66,5.78,8.47,17.56,7.95,25.81,2.76,3.42-2.11,6.44-5.03,8.81-8.47,3.7-5.34,5.47-11.72,7.03-18.02.27-.02.54-.04.75-.05.69-.03,1.37-.13,2.06-.25.91-.17,1.85-.34,2.76-.33.28,0,.56.02.83.04-.33,5.25-.94,10.49-.55,15.69.15,1.79.46,3.54.68,5.32.49,3.63,1.02,7.27,2.22,10.68,1.27,3.7,3.44,6.93,6.22,9.41,1.58,1.42,3.09,2.56,5.12,3.46,4.67,2.11,9.8.96,13.93-2.63,2.28-2,4.19-4.62,5.48-7.44,1.06-2.39,1.67-4.86,2.01-7.4.68-5.42-.4-10.62-2.48-15.24-1.15-2.54-2.58-4.85-4.17-7,.3.14.6.27.91.41,4,1.7,8.17,3.69,12.33,4.92,2.9.83,5.93,1.24,9.01,1.05,7.02-.36,13.83-4.07,18.2-10.56,2.17-3.21,3.55-6.85,4.43-10.55ZM80.87,51.45s.06-.01.09-.02c-.06.03-.11.04-.13.04,0,0,0,0,.04-.02ZM33.62,82.4c-1.11,1.32-2.28,2.44-3.64,3.38-3,2.09-6.47,3.22-9.89,3.42-.61.04-1.25.03-1.85,0-.89-.06-1.8-.2-2.46-.54-.2-.11-.26-.2-.28-.22.01-.01.04.03.03,0-.1-.32-.14-.69-.08-1.23.12-1.15.59-2.41,1.28-3.35,2.85-3.43,7.52-4.77,11.62-5.84,3.03-.74,6.16-1.37,9.23-1.82-1.12,2.23-2.42,4.34-3.96,6.19Z"/>
        <path class="cls-1" d="M63.05,51.53c1.19-1.76,3.43-1.94,5.07-.19,1.7,1.78,1.97,4.59.55,6.35-1.31,1.63-4.1,2.12-6.03.74-1.29-.9-2.08-2.64-1.52-4.01.33-.81,1.15-1.3,2.02-1.41.16-.02.24.2.1.26-.65.27-1.17.75-1.25,1.45-.08.92.62,1.85,1.51,2.16.61.22,1.27.11,1.73-.25.34-.27.47-.64.6-1.04.13-.42.23-.84.26-1.29.07-.8.13-1.95-.7-2.46-.28-.16-.63-.22-.96-.22-.38,0-.8.06-1.22.15-.13.03-.24-.12-.17-.22h0Z"/>
      </g>
    </g>
  </g>
</svg>