<?xml version="1.0" encoding="UTF-8"?>
<svg id="Layer_2" xmlns="http://www.w3.org/2000/svg" viewBox="0 0 51.01 57">
  <defs>
    <style>
      .cls-1 {
        fill: #444036;
      }
    </style>
  </defs>
  <g id="Layer_1-2" data-name="Layer_1">
    <g id="Logos">
      <path id="solid" class="cls-1" d="M32.39,29.97c3.52.44,7.2-.41,10.35-2.07,4.19-1.91,8.51-8.41.35-7.4-2.09.36-5.28.75-7.77,1.85-1.26,1.94-2.7,3.76-4.25,5.44-.81.87-2.16.92-3.03.11-1.48-1.49-.28-4.17.59-5.4.91-1.29,2.07-2.24,3.36-2.95.99-1.53,1.88-3.12,2.62-4.77.86-1.64,4.23-11.39.55-10.64-5,1.06-8.12,13.52-8.74,18.13l-.48.66c-.05.06-.12.1-.19.1-.65.06-1.35-.31-1.73-.83-.39-.49-.61-1.04-.82-1.54-.71-1.78-2.33-3.13-4.2-3.33-1.31-.16-2.65.31-3.68,1.1-.32.25-.5.52-.5.64-.01.13,0,.29.15.71.68,2.09,2.47,3.65,4.59,4.22,1.2.31,1.66,1.85.87,2.78-2.27,3.09-6.72,8.56-11.03,7.81-1.26-.2-2.18-1.27-2.52-2.41-.08.1-.16.2-.24.3-3.83,5.73.41,10.01,6.4,6.78,2.99-1.49,7.22-5.21,7.09-8.55-.1-1.29.86-2.42,2.15-2.52,1.23-.1,2.32.78,2.5,1.99l1.97,13.13c.52,3.1.61,5.85,2.8,7.89,1.15.98,2.9,1.51,4.17.56,2.25-1.85,1.59-5.43,1.17-8.07-.75-4.32-1.82-8.6-3.29-12.73-.19-.5.26-1.06.79-.98ZM25.69,27.13c-.14.2-.38.34-.62.37-.03,0-.05,0-.07,0-.11,0-.21-.02-.3-.04-.06-.01-.11-.03-.17-.03-.09-.01-.18,0-.28,0-.09,0-.18.01-.27,0-.32-.02-.45-.16-.51-.28-.11-.23-.02-.55.23-.89.29-.39.82-.78,1.27-.71.09.01.16.04.21.09.09.07.12.17.15.25,0,.03.02.05.03.08h0c.03.07.1.12.17.19.09.08.19.17.25.3.09.2.05.47-.09.68ZM6.99,29.23s0-.05,0-.05c0,.02,0,.04,0,.05ZM36.07.73c.4-.07.87-.11,1.45-.11,3.03,0,3.03,1.09,6.05,1.09s4.48-3.16,6.47-.91c2.28,2.57-.97,3.78-.97,7.19s1.11,3.42,1.11,6.83c0,2.51-.6,3.18-.91,4.7-.03-.04-.06-.09-.09-.13-2.41-2.62-6.1-2.07-9.19-1.88-.7.06-1.41.13-2.13.23,1.16-2.53,2.02-5.19,2.45-7.96.24-1.86.5-3.75-.09-5.63-.53-1.97-2.24-3.31-4.15-3.44ZM1.78,8C1.78,4.59-1.47,3.38.81.81c1.99-2.25,3.44.91,6.47.91s3.02-1.09,6.05-1.09,3.02,1.09,6.05,1.09,3.02-1.09,6.05-1.09,3.03,1.09,6.05,1.09c.51,0,.92-.03,1.29-.08-5.54,3.31-7.18,14.97-6.78,20.45l-.34.31c-.85-.17-1.12-1.13-1.37-2.1-.79-3.7-5.06-6.1-8.66-4.75-1.39.52-2.57,1.01-3.32,2.55-.6,1.66-.04,2.86.52,4.26.71,1.57,1.9,2.89,3.31,3.86-1.05,1.1-2.2,2.11-3.42,2.99-.34.25-.76.53-1.19.74.15-1.11.07-2.31-.91-3.17-1.29-1.19-3.08-.87-4.36-.21-2.28,1.25-3.95,3.18-4.98,5.44-.29-.88-.58-1.73-.58-3.49,0-3.42,1.11-3.42,1.11-6.83s-1.11-3.42-1.11-6.83,1.11-3.42,1.11-6.83ZM10.37,30.31c-.08,0-.12-.01,0,0,0,0,0,0,0,0ZM30.8,55.31c-2.36.15-2.59,1.07-5.37,1.07-3.03,0-3.03-1.09-6.05-1.09s-3.02,1.09-6.05,1.09-3.03-1.09-6.05-1.09-4.48,3.16-6.47.91c-2.28-2.57.97-3.78.97-7.19s-1.11-3.42-1.11-6.83c0-.75.06-1.33.14-1.83,1.67,3.84,6.06,6.07,10.57,4.96,4.03-.96,7.66-3.39,10.27-6.61.54,2.81,1.02,5.31,1.02,5.31.49,2.66,1.21,6.15,3.24,8.55,1.23,1.44,3.01,2.49,4.9,2.76ZM50.05,56.19c-1.99,2.25-3.44-.91-6.47-.91s-3.02,1.09-6.05,1.09c-2.64,0-2.98-.83-5.03-1.04.38-.05.76-.12,1.13-.24,5.01-1.7,4.4-7.99,3.27-11.83-1-3.97-2.15-7.89-3.52-11.75,3.49.13,6.95-.66,10.11-2.11,2.08-.89,4.73-2.77,5.93-5.01.33,1.15.77,1.95.77,4.1,0,3.42-1.11,3.42-1.11,6.83s1.11,3.42,1.11,6.83-1.88,3.63-1.09,6.96c.88,3.72,3.23,4.5.96,7.07Z"/>
    </g>
  </g>
</svg>