<?xml version="1.0" encoding="UTF-8"?>
<svg id="Layer_2" xmlns="http://www.w3.org/2000/svg" viewBox="0 0 116.98 130.71">
  <defs>
    <style>
      .cls-1 {
        fill: #f8df8d;
      }
    </style>
  </defs>
  <g id="Layer_1-2" data-name="Layer_1">
    <g id="Logos">
      <path id="solid" class="cls-1" d="M74.29,68.72c8.08,1,16.51-.93,23.73-4.74,9.6-4.37,19.51-19.29.8-16.98-4.79.82-12.11,1.72-17.83,4.24-2.9,4.44-6.18,8.63-9.74,12.48-1.85,1.99-4.95,2.1-6.94.25-3.4-3.42-.64-9.55,1.34-12.39,2.09-2.97,4.74-5.15,7.71-6.77,2.27-3.5,4.31-7.15,6.01-10.93,1.97-3.77,9.7-26.12,1.27-24.4-11.46,2.44-18.62,31-20.04,41.58l-1.1,1.51c-.11.15-.27.23-.44.23-1.5.13-3.09-.72-3.97-1.91-.89-1.13-1.4-2.38-1.89-3.52-1.63-4.08-5.35-7.18-9.63-7.65-3.01-.37-6.08.71-8.44,2.53-.73.58-1.14,1.2-1.15,1.48-.03.29-.02.66.34,1.63,1.57,4.8,5.65,8.36,10.52,9.68,2.76.71,3.8,4.24,1.98,6.39-5.21,7.09-15.41,19.63-25.29,17.9-2.9-.46-5.01-2.92-5.77-5.54-.18.23-.37.45-.54.7-8.78,13.14.93,22.95,14.69,15.54,6.85-3.42,16.55-11.96,16.26-19.6-.24-2.96,1.96-5.55,4.92-5.78,2.83-.23,5.32,1.79,5.74,4.56l4.52,30.1c1.2,7.1,1.41,13.4,6.41,18.09,2.63,2.25,6.66,3.46,9.56,1.29,5.16-4.25,3.65-12.45,2.68-18.5-1.72-9.91-4.17-19.72-7.55-29.2-.45-1.16.6-2.43,1.81-2.25ZM58.92,62.23c-.33.47-.87.79-1.41.84-.06,0-.12,0-.17,0-.25,0-.48-.05-.69-.1-.13-.03-.26-.06-.39-.07-.21-.02-.42,0-.63,0-.21.01-.41.02-.61.01-.73-.04-1.04-.37-1.16-.65-.24-.52-.05-1.26.53-2.04.67-.9,1.88-1.79,2.91-1.63.2.03.36.1.49.2.21.17.29.4.35.58.02.06.04.12.06.17h0c.07.15.22.29.38.43.2.18.43.39.57.69.21.46.12,1.07-.22,1.55ZM16.03,67.02c0-.08,0-.11.01-.12,0,.04-.01.08-.01.12ZM82.73,1.67c.92-.15,1.99-.24,3.32-.24,6.94,0,6.94,2.51,13.88,2.51s10.27-7.24,14.84-2.08c5.22,5.9-2.23,8.66-2.23,16.49s2.54,7.83,2.54,15.67c0,5.75-1.36,7.29-2.09,10.79-.07-.1-.14-.21-.21-.31-5.53-6.01-14-4.76-21.08-4.31-1.6.13-3.23.3-4.88.53,2.67-5.8,4.63-11.91,5.62-18.25.55-4.26,1.15-8.6-.21-12.92-1.22-4.52-5.13-7.59-9.51-7.88ZM4.08,18.35C4.08,10.52-3.37,7.76,1.86,1.85c4.56-5.16,7.89,2.08,14.83,2.08s6.94-2.51,13.87-2.51,6.93,2.51,13.87,2.51,6.94-2.51,13.87-2.51,6.94,2.51,13.88,2.51c1.16,0,2.12-.07,2.95-.19-12.71,7.59-16.45,34.33-15.56,46.91l-.79.71c-1.96-.39-2.56-2.59-3.15-4.83-1.81-8.48-11.61-13.99-19.85-10.9-3.19,1.19-5.9,2.32-7.61,5.86-1.37,3.81-.09,6.56,1.19,9.77,1.64,3.59,4.35,6.62,7.59,8.86-2.41,2.53-5.04,4.84-7.85,6.85-.78.58-1.74,1.2-2.72,1.7.35-2.54.15-5.29-2.08-7.28-2.96-2.73-7.07-2-9.99-.48-5.24,2.87-9.06,7.3-11.43,12.48-.65-2.02-1.33-3.98-1.33-8.01,0-7.84,2.54-7.84,2.54-15.67s-2.54-7.84-2.54-15.67,2.54-7.84,2.54-15.67ZM23.78,69.5c-.19.01-.28-.03,0,0,0,0,0,0,0,0ZM70.64,126.83c-5.41.35-5.95,2.45-12.31,2.45-6.94,0-6.94-2.51-13.88-2.51s-6.94,2.51-13.87,2.51-6.94-2.51-13.88-2.51-10.27,7.24-14.84,2.08c-5.22-5.9,2.23-8.66,2.23-16.49s-2.54-7.83-2.54-15.67c0-1.72.13-3.06.32-4.19,3.83,8.82,13.89,13.91,24.25,11.38,9.23-2.19,17.57-7.77,23.54-15.17,1.24,6.45,2.34,12.19,2.34,12.19,1.13,6.09,2.76,14.09,7.42,19.6,2.82,3.31,6.9,5.71,11.23,6.33ZM114.77,128.86c-4.56,5.16-7.89-2.08-14.83-2.08s-6.94,2.51-13.87,2.51c-6.06,0-6.82-1.91-11.54-2.4.87-.1,1.73-.28,2.59-.55,11.49-3.89,10.1-18.31,7.5-27.13-2.29-9.1-4.94-18.1-8.07-26.94,8.01.29,15.95-1.5,23.18-4.84,4.78-2.05,10.84-6.35,13.61-11.49.75,2.64,1.76,4.47,1.76,9.41,0,7.84-2.54,7.84-2.54,15.67s2.54,7.84,2.54,15.67-4.3,8.32-2.51,15.96c2.01,8.53,7.42,10.31,2.19,16.21Z"/>
    </g>
  </g>
</svg>